<?xml version="1.0" encoding="utf-8" standalone="no"?>
<!DOCTYPE svg PUBLIC "-//W3C//DTD SVG 1.1//EN"
  "http://www.w3.org/Graphics/SVG/1.1/DTD/svg11.dtd">
<svg xmlns:xlink="http://www.w3.org/1999/xlink" width="1152pt" height="864pt" viewBox="0 0 1152 864" xmlns="http://www.w3.org/2000/svg" version="1.1">
 <metadata>
  <rdf:RDF xmlns:dc="http://purl.org/dc/elements/1.1/" xmlns:cc="http://creativecommons.org/ns#" xmlns:rdf="http://www.w3.org/1999/02/22-rdf-syntax-ns#">
   <cc:Work>
    <dc:type rdf:resource="http://purl.org/dc/dcmitype/StillImage"/>
    <dc:date>2024-12-10T10:11:00.651162</dc:date>
    <dc:format>image/svg+xml</dc:format>
    <dc:creator>
     <cc:Agent>
      <dc:title>Matplotlib v3.7.5, https://matplotlib.org/</dc:title>
     </cc:Agent>
    </dc:creator>
   </cc:Work>
  </rdf:RDF>
 </metadata>
 <defs>
  <style type="text/css">*{stroke-linejoin: round; stroke-linecap: butt}</style>
 </defs>
 <g id="figure_1">
  <g id="patch_1">
   <path d="M 0 864 
L 1152 864 
L 1152 0 
L 0 0 
L 0 864 
z
" style="fill: none"/>
  </g>
  <g id="axes_1">
   <g id="patch_2">
    <path d="M 147.8 375.690663 
L 1117.44 375.690663 
L 1117.44 34.56 
L 147.8 34.56 
L 147.8 375.690663 
z
" style="fill: none"/>
   </g>
   <g id="matplotlib.axis_1">
    <g id="xtick_1">
     <g id="line2d_1">
      <defs>
       <path id="m5ac136562d" d="M 0 0 
L 0 3.5 
" style="stroke: #000000; stroke-width: 0.8"/>
      </defs>
      <g>
       <use xlink:href="#m5ac136562d" x="173.884935" y="375.690663" style="stroke: #000000; stroke-width: 0.8"/>
      </g>
     </g>
    </g>
    <g id="xtick_2">
     <g id="line2d_2">
      <g>
       <use xlink:href="#m5ac136562d" x="353.781039" y="375.690663" style="stroke: #000000; stroke-width: 0.8"/>
      </g>
     </g>
    </g>
    <g id="xtick_3">
     <g id="line2d_3">
      <g>
       <use xlink:href="#m5ac136562d" x="533.677143" y="375.690663" style="stroke: #000000; stroke-width: 0.8"/>
      </g>
     </g>
    </g>
    <g id="xtick_4">
     <g id="line2d_4">
      <g>
       <use xlink:href="#m5ac136562d" x="713.573247" y="375.690663" style="stroke: #000000; stroke-width: 0.8"/>
      </g>
     </g>
    </g>
    <g id="xtick_5">
     <g id="line2d_5">
      <g>
       <use xlink:href="#m5ac136562d" x="893.469351" y="375.690663" style="stroke: #000000; stroke-width: 0.8"/>
      </g>
     </g>
    </g>
    <g id="xtick_6">
     <g id="line2d_6">
      <g>
       <use xlink:href="#m5ac136562d" x="1073.365455" y="375.690663" style="stroke: #000000; stroke-width: 0.8"/>
      </g>
     </g>
    </g>
   </g>
   <g id="matplotlib.axis_2">
    <g id="ytick_1">
     <g id="line2d_7">
      <defs>
       <path id="m357cb40aff" d="M 0 0 
L -3.5 0 
" style="stroke: #000000; stroke-width: 0.8"/>
      </defs>
      <g>
       <use xlink:href="#m357cb40aff" x="147.8" y="360.369874" style="stroke: #000000; stroke-width: 0.8"/>
      </g>
     </g>
     <g id="text_1">
      <!-- 0.000 -->
      <g transform="translate(49.19 372.527374) scale(0.32 -0.32)">
       <defs>
        <path id="DejaVuSans-30" d="M 2034 4250 
Q 1547 4250 1301 3770 
Q 1056 3291 1056 2328 
Q 1056 1369 1301 889 
Q 1547 409 2034 409 
Q 2525 409 2770 889 
Q 3016 1369 3016 2328 
Q 3016 3291 2770 3770 
Q 2525 4250 2034 4250 
z
M 2034 4750 
Q 2819 4750 3233 4129 
Q 3647 3509 3647 2328 
Q 3647 1150 3233 529 
Q 2819 -91 2034 -91 
Q 1250 -91 836 529 
Q 422 1150 422 2328 
Q 422 3509 836 4129 
Q 1250 4750 2034 4750 
z
" transform="scale(0.015625)"/>
        <path id="DejaVuSans-2e" d="M 684 794 
L 1344 794 
L 1344 0 
L 684 0 
L 684 794 
z
" transform="scale(0.015625)"/>
       </defs>
       <use xlink:href="#DejaVuSans-30"/>
       <use xlink:href="#DejaVuSans-2e" x="63.623047"/>
       <use xlink:href="#DejaVuSans-30" x="95.410156"/>
       <use xlink:href="#DejaVuSans-30" x="159.033203"/>
       <use xlink:href="#DejaVuSans-30" x="222.65625"/>
      </g>
     </g>
    </g>
    <g id="ytick_2">
     <g id="line2d_8">
      <g>
       <use xlink:href="#m357cb40aff" x="147.8" y="284.958347" style="stroke: #000000; stroke-width: 0.8"/>
      </g>
     </g>
     <g id="text_2">
      <!-- 0.005 -->
      <g transform="translate(49.19 297.115847) scale(0.32 -0.32)">
       <defs>
        <path id="DejaVuSans-35" d="M 691 4666 
L 3169 4666 
L 3169 4134 
L 1269 4134 
L 1269 2991 
Q 1406 3038 1543 3061 
Q 1681 3084 1819 3084 
Q 2600 3084 3056 2656 
Q 3513 2228 3513 1497 
Q 3513 744 3044 326 
Q 2575 -91 1722 -91 
Q 1428 -91 1123 -41 
Q 819 9 494 109 
L 494 744 
Q 775 591 1075 516 
Q 1375 441 1709 441 
Q 2250 441 2565 725 
Q 2881 1009 2881 1497 
Q 2881 1984 2565 2268 
Q 2250 2553 1709 2553 
Q 1456 2553 1204 2497 
Q 953 2441 691 2322 
L 691 4666 
z
" transform="scale(0.015625)"/>
       </defs>
       <use xlink:href="#DejaVuSans-30"/>
       <use xlink:href="#DejaVuSans-2e" x="63.623047"/>
       <use xlink:href="#DejaVuSans-30" x="95.410156"/>
       <use xlink:href="#DejaVuSans-30" x="159.033203"/>
       <use xlink:href="#DejaVuSans-35" x="222.65625"/>
      </g>
     </g>
    </g>
    <g id="ytick_3">
     <g id="line2d_9">
      <g>
       <use xlink:href="#m357cb40aff" x="147.8" y="209.546821" style="stroke: #000000; stroke-width: 0.8"/>
      </g>
     </g>
     <g id="text_3">
      <!-- 0.010 -->
      <g transform="translate(49.19 221.704321) scale(0.32 -0.32)">
       <defs>
        <path id="DejaVuSans-31" d="M 794 531 
L 1825 531 
L 1825 4091 
L 703 3866 
L 703 4441 
L 1819 4666 
L 2450 4666 
L 2450 531 
L 3481 531 
L 3481 0 
L 794 0 
L 794 531 
z
" transform="scale(0.015625)"/>
       </defs>
       <use xlink:href="#DejaVuSans-30"/>
       <use xlink:href="#DejaVuSans-2e" x="63.623047"/>
       <use xlink:href="#DejaVuSans-30" x="95.410156"/>
       <use xlink:href="#DejaVuSans-31" x="159.033203"/>
       <use xlink:href="#DejaVuSans-30" x="222.65625"/>
      </g>
     </g>
    </g>
    <g id="ytick_4">
     <g id="line2d_10">
      <g>
       <use xlink:href="#m357cb40aff" x="147.8" y="134.135294" style="stroke: #000000; stroke-width: 0.8"/>
      </g>
     </g>
     <g id="text_4">
      <!-- 0.015 -->
      <g transform="translate(49.19 146.292794) scale(0.32 -0.32)">
       <use xlink:href="#DejaVuSans-30"/>
       <use xlink:href="#DejaVuSans-2e" x="63.623047"/>
       <use xlink:href="#DejaVuSans-30" x="95.410156"/>
       <use xlink:href="#DejaVuSans-31" x="159.033203"/>
       <use xlink:href="#DejaVuSans-35" x="222.65625"/>
      </g>
     </g>
    </g>
    <g id="ytick_5">
     <g id="line2d_11">
      <g>
       <use xlink:href="#m357cb40aff" x="147.8" y="58.723768" style="stroke: #000000; stroke-width: 0.8"/>
      </g>
     </g>
     <g id="text_5">
      <!-- 0.020 -->
      <g transform="translate(49.19 70.881268) scale(0.32 -0.32)">
       <defs>
        <path id="DejaVuSans-32" d="M 1228 531 
L 3431 531 
L 3431 0 
L 469 0 
L 469 531 
Q 828 903 1448 1529 
Q 2069 2156 2228 2338 
Q 2531 2678 2651 2914 
Q 2772 3150 2772 3378 
Q 2772 3750 2511 3984 
Q 2250 4219 1831 4219 
Q 1534 4219 1204 4116 
Q 875 4013 500 3803 
L 500 4441 
Q 881 4594 1212 4672 
Q 1544 4750 1819 4750 
Q 2544 4750 2975 4387 
Q 3406 4025 3406 3419 
Q 3406 3131 3298 2873 
Q 3191 2616 2906 2266 
Q 2828 2175 2409 1742 
Q 1991 1309 1228 531 
z
" transform="scale(0.015625)"/>
       </defs>
       <use xlink:href="#DejaVuSans-30"/>
       <use xlink:href="#DejaVuSans-2e" x="63.623047"/>
       <use xlink:href="#DejaVuSans-30" x="95.410156"/>
       <use xlink:href="#DejaVuSans-32" x="159.033203"/>
       <use xlink:href="#DejaVuSans-30" x="222.65625"/>
      </g>
     </g>
    </g>
    <g id="text_6">
     <!-- MSE Loss -->
     <g transform="translate(38.535 279.377831) rotate(-90) scale(0.32 -0.32)">
      <defs>
       <path id="DejaVuSans-4d" d="M 628 4666 
L 1569 4666 
L 2759 1491 
L 3956 4666 
L 4897 4666 
L 4897 0 
L 4281 0 
L 4281 4097 
L 3078 897 
L 2444 897 
L 1241 4097 
L 1241 0 
L 628 0 
L 628 4666 
z
" transform="scale(0.015625)"/>
       <path id="DejaVuSans-53" d="M 3425 4513 
L 3425 3897 
Q 3066 4069 2747 4153 
Q 2428 4238 2131 4238 
Q 1616 4238 1336 4038 
Q 1056 3838 1056 3469 
Q 1056 3159 1242 3001 
Q 1428 2844 1947 2747 
L 2328 2669 
Q 3034 2534 3370 2195 
Q 3706 1856 3706 1288 
Q 3706 609 3251 259 
Q 2797 -91 1919 -91 
Q 1588 -91 1214 -16 
Q 841 59 441 206 
L 441 856 
Q 825 641 1194 531 
Q 1563 422 1919 422 
Q 2459 422 2753 634 
Q 3047 847 3047 1241 
Q 3047 1584 2836 1778 
Q 2625 1972 2144 2069 
L 1759 2144 
Q 1053 2284 737 2584 
Q 422 2884 422 3419 
Q 422 4038 858 4394 
Q 1294 4750 2059 4750 
Q 2388 4750 2728 4690 
Q 3069 4631 3425 4513 
z
" transform="scale(0.015625)"/>
       <path id="DejaVuSans-45" d="M 628 4666 
L 3578 4666 
L 3578 4134 
L 1259 4134 
L 1259 2753 
L 3481 2753 
L 3481 2222 
L 1259 2222 
L 1259 531 
L 3634 531 
L 3634 0 
L 628 0 
L 628 4666 
z
" transform="scale(0.015625)"/>
       <path id="DejaVuSans-20" transform="scale(0.015625)"/>
       <path id="DejaVuSans-4c" d="M 628 4666 
L 1259 4666 
L 1259 531 
L 3531 531 
L 3531 0 
L 628 0 
L 628 4666 
z
" transform="scale(0.015625)"/>
       <path id="DejaVuSans-6f" d="M 1959 3097 
Q 1497 3097 1228 2736 
Q 959 2375 959 1747 
Q 959 1119 1226 758 
Q 1494 397 1959 397 
Q 2419 397 2687 759 
Q 2956 1122 2956 1747 
Q 2956 2369 2687 2733 
Q 2419 3097 1959 3097 
z
M 1959 3584 
Q 2709 3584 3137 3096 
Q 3566 2609 3566 1747 
Q 3566 888 3137 398 
Q 2709 -91 1959 -91 
Q 1206 -91 779 398 
Q 353 888 353 1747 
Q 353 2609 779 3096 
Q 1206 3584 1959 3584 
z
" transform="scale(0.015625)"/>
       <path id="DejaVuSans-73" d="M 2834 3397 
L 2834 2853 
Q 2591 2978 2328 3040 
Q 2066 3103 1784 3103 
Q 1356 3103 1142 2972 
Q 928 2841 928 2578 
Q 928 2378 1081 2264 
Q 1234 2150 1697 2047 
L 1894 2003 
Q 2506 1872 2764 1633 
Q 3022 1394 3022 966 
Q 3022 478 2636 193 
Q 2250 -91 1575 -91 
Q 1294 -91 989 -36 
Q 684 19 347 128 
L 347 722 
Q 666 556 975 473 
Q 1284 391 1588 391 
Q 1994 391 2212 530 
Q 2431 669 2431 922 
Q 2431 1156 2273 1281 
Q 2116 1406 1581 1522 
L 1381 1569 
Q 847 1681 609 1914 
Q 372 2147 372 2553 
Q 372 3047 722 3315 
Q 1072 3584 1716 3584 
Q 2034 3584 2315 3537 
Q 2597 3491 2834 3397 
z
" transform="scale(0.015625)"/>
      </defs>
      <use xlink:href="#DejaVuSans-4d"/>
      <use xlink:href="#DejaVuSans-53" x="86.279297"/>
      <use xlink:href="#DejaVuSans-45" x="149.755859"/>
      <use xlink:href="#DejaVuSans-20" x="212.939453"/>
      <use xlink:href="#DejaVuSans-4c" x="244.726562"/>
      <use xlink:href="#DejaVuSans-6f" x="298.689453"/>
      <use xlink:href="#DejaVuSans-73" x="359.871094"/>
      <use xlink:href="#DejaVuSans-73" x="411.970703"/>
     </g>
    </g>
   </g>
   <g id="line2d_12">
    <path d="M 191.874545 321.145355 
L 209.864156 334.344768 
L 227.853766 339.948719 
L 245.843377 343.120391 
L 263.832987 345.003135 
L 281.822597 346.351713 
L 299.812208 347.414689 
L 317.801818 348.254462 
L 335.791429 349.090441 
L 353.781039 349.914701 
L 371.770649 350.832038 
L 389.76026 351.903852 
L 407.74987 353.460587 
L 425.739481 354.85112 
L 443.729091 355.842678 
L 461.718701 356.586003 
L 479.708312 357.23173 
L 497.697922 357.790726 
L 515.687532 358.229039 
L 533.677143 358.567109 
L 551.666753 358.852075 
L 569.656364 359.094163 
L 587.645974 359.280995 
L 605.635584 359.396396 
L 623.625195 359.567671 
L 641.614805 359.679838 
L 659.604416 359.762832 
L 677.594026 359.824212 
L 695.583636 359.90249 
L 713.573247 359.963033 
L 731.562857 359.966678 
L 749.552468 360.014766 
L 767.542078 360.042485 
L 785.531688 360.081007 
L 803.521299 360.090372 
L 821.510909 360.117406 
L 839.500519 360.101011 
L 857.49013 360.134627 
L 875.47974 360.139505 
L 893.469351 360.125448 
L 911.458961 360.139904 
L 929.448571 360.143804 
L 947.438182 360.171876 
L 965.427792 360.170792 
L 983.417403 360.156527 
L 1001.407013 360.157359 
L 1019.396623 360.164209 
L 1037.386234 360.184724 
L 1055.375844 360.173206 
L 1073.365455 360.166113 
" clip-path="url(#pc9c5dfef1a)" style="fill: none; stroke: #1f77b4; stroke-width: 5; stroke-linecap: square"/>
   </g>
   <g id="line2d_13">
    <path d="M 191.874545 50.065939 
L 209.864156 204.945559 
L 227.853766 258.306747 
L 245.843377 276.636851 
L 263.832987 290.510129 
L 281.822597 300.719708 
L 299.812208 307.537218 
L 317.801818 312.450695 
L 335.791429 315.784849 
L 353.781039 319.492158 
L 371.770649 322.351775 
L 389.76026 324.455016 
L 407.74987 326.959784 
L 425.739481 328.80187 
L 443.729091 330.657755 
L 461.718701 331.805446 
L 479.708312 333.308586 
L 497.697922 334.549598 
L 515.687532 335.425556 
L 533.677143 336.173042 
L 551.666753 337.018798 
L 569.656364 337.69301 
L 587.645974 338.36452 
L 605.635584 339.014563 
L 623.625195 339.628356 
L 641.614805 340.125173 
L 659.604416 340.575244 
L 677.594026 340.587196 
L 695.583636 341.167182 
L 713.573247 341.788223 
L 731.562857 342.040568 
L 749.552468 342.3926 
L 767.542078 342.784222 
L 785.531688 342.920005 
L 803.521299 343.310411 
L 821.510909 343.369561 
L 839.500519 343.688439 
L 857.49013 343.889235 
L 875.47974 344.214357 
L 893.469351 344.427578 
L 911.458961 344.163868 
L 929.448571 344.34536 
L 947.438182 344.819368 
L 965.427792 345.060448 
L 983.417403 344.8052 
L 1001.407013 344.819267 
L 1019.396623 345.493626 
L 1037.386234 345.618585 
L 1055.375844 345.73139 
L 1073.365455 345.805226 
" clip-path="url(#pc9c5dfef1a)" style="fill: none; stroke: #ff7f0e; stroke-width: 5; stroke-linecap: square"/>
   </g>
   <g id="patch_3">
    <path d="M 147.8 375.690663 
L 147.8 34.56 
" style="fill: none; stroke: #000000; stroke-width: 0.8; stroke-linejoin: miter; stroke-linecap: square"/>
   </g>
   <g id="patch_4">
    <path d="M 1117.44 375.690663 
L 1117.44 34.56 
" style="fill: none; stroke: #000000; stroke-width: 0.8; stroke-linejoin: miter; stroke-linecap: square"/>
   </g>
   <g id="patch_5">
    <path d="M 147.8 375.690663 
L 1117.44 375.690663 
" style="fill: none; stroke: #000000; stroke-width: 0.8; stroke-linejoin: miter; stroke-linecap: square"/>
   </g>
   <g id="patch_6">
    <path d="M 147.8 34.56 
L 1117.44 34.56 
" style="fill: none; stroke: #000000; stroke-width: 0.8; stroke-linejoin: miter; stroke-linecap: square"/>
   </g>
   <g id="legend_1">
    <g id="line2d_14">
     <path d="M 428.835 76.475 
L 460.835 76.475 
L 492.835 76.475 
" style="fill: none; stroke: #1f77b4; stroke-width: 5; stroke-linecap: square"/>
    </g>
    <g id="text_7">
     <!-- Centeralized Autoencoder Test Loss -->
     <g transform="translate(518.435 87.675) scale(0.32 -0.32)">
      <defs>
       <path id="DejaVuSans-43" d="M 4122 4306 
L 4122 3641 
Q 3803 3938 3442 4084 
Q 3081 4231 2675 4231 
Q 1875 4231 1450 3742 
Q 1025 3253 1025 2328 
Q 1025 1406 1450 917 
Q 1875 428 2675 428 
Q 3081 428 3442 575 
Q 3803 722 4122 1019 
L 4122 359 
Q 3791 134 3420 21 
Q 3050 -91 2638 -91 
Q 1578 -91 968 557 
Q 359 1206 359 2328 
Q 359 3453 968 4101 
Q 1578 4750 2638 4750 
Q 3056 4750 3426 4639 
Q 3797 4528 4122 4306 
z
" transform="scale(0.015625)"/>
       <path id="DejaVuSans-65" d="M 3597 1894 
L 3597 1613 
L 953 1613 
Q 991 1019 1311 708 
Q 1631 397 2203 397 
Q 2534 397 2845 478 
Q 3156 559 3463 722 
L 3463 178 
Q 3153 47 2828 -22 
Q 2503 -91 2169 -91 
Q 1331 -91 842 396 
Q 353 884 353 1716 
Q 353 2575 817 3079 
Q 1281 3584 2069 3584 
Q 2775 3584 3186 3129 
Q 3597 2675 3597 1894 
z
M 3022 2063 
Q 3016 2534 2758 2815 
Q 2500 3097 2075 3097 
Q 1594 3097 1305 2825 
Q 1016 2553 972 2059 
L 3022 2063 
z
" transform="scale(0.015625)"/>
       <path id="DejaVuSans-6e" d="M 3513 2113 
L 3513 0 
L 2938 0 
L 2938 2094 
Q 2938 2591 2744 2837 
Q 2550 3084 2163 3084 
Q 1697 3084 1428 2787 
Q 1159 2491 1159 1978 
L 1159 0 
L 581 0 
L 581 3500 
L 1159 3500 
L 1159 2956 
Q 1366 3272 1645 3428 
Q 1925 3584 2291 3584 
Q 2894 3584 3203 3211 
Q 3513 2838 3513 2113 
z
" transform="scale(0.015625)"/>
       <path id="DejaVuSans-74" d="M 1172 4494 
L 1172 3500 
L 2356 3500 
L 2356 3053 
L 1172 3053 
L 1172 1153 
Q 1172 725 1289 603 
Q 1406 481 1766 481 
L 2356 481 
L 2356 0 
L 1766 0 
Q 1100 0 847 248 
Q 594 497 594 1153 
L 594 3053 
L 172 3053 
L 172 3500 
L 594 3500 
L 594 4494 
L 1172 4494 
z
" transform="scale(0.015625)"/>
       <path id="DejaVuSans-72" d="M 2631 2963 
Q 2534 3019 2420 3045 
Q 2306 3072 2169 3072 
Q 1681 3072 1420 2755 
Q 1159 2438 1159 1844 
L 1159 0 
L 581 0 
L 581 3500 
L 1159 3500 
L 1159 2956 
Q 1341 3275 1631 3429 
Q 1922 3584 2338 3584 
Q 2397 3584 2469 3576 
Q 2541 3569 2628 3553 
L 2631 2963 
z
" transform="scale(0.015625)"/>
       <path id="DejaVuSans-61" d="M 2194 1759 
Q 1497 1759 1228 1600 
Q 959 1441 959 1056 
Q 959 750 1161 570 
Q 1363 391 1709 391 
Q 2188 391 2477 730 
Q 2766 1069 2766 1631 
L 2766 1759 
L 2194 1759 
z
M 3341 1997 
L 3341 0 
L 2766 0 
L 2766 531 
Q 2569 213 2275 61 
Q 1981 -91 1556 -91 
Q 1019 -91 701 211 
Q 384 513 384 1019 
Q 384 1609 779 1909 
Q 1175 2209 1959 2209 
L 2766 2209 
L 2766 2266 
Q 2766 2663 2505 2880 
Q 2244 3097 1772 3097 
Q 1472 3097 1187 3025 
Q 903 2953 641 2809 
L 641 3341 
Q 956 3463 1253 3523 
Q 1550 3584 1831 3584 
Q 2591 3584 2966 3190 
Q 3341 2797 3341 1997 
z
" transform="scale(0.015625)"/>
       <path id="DejaVuSans-6c" d="M 603 4863 
L 1178 4863 
L 1178 0 
L 603 0 
L 603 4863 
z
" transform="scale(0.015625)"/>
       <path id="DejaVuSans-69" d="M 603 3500 
L 1178 3500 
L 1178 0 
L 603 0 
L 603 3500 
z
M 603 4863 
L 1178 4863 
L 1178 4134 
L 603 4134 
L 603 4863 
z
" transform="scale(0.015625)"/>
       <path id="DejaVuSans-7a" d="M 353 3500 
L 3084 3500 
L 3084 2975 
L 922 459 
L 3084 459 
L 3084 0 
L 275 0 
L 275 525 
L 2438 3041 
L 353 3041 
L 353 3500 
z
" transform="scale(0.015625)"/>
       <path id="DejaVuSans-64" d="M 2906 2969 
L 2906 4863 
L 3481 4863 
L 3481 0 
L 2906 0 
L 2906 525 
Q 2725 213 2448 61 
Q 2172 -91 1784 -91 
Q 1150 -91 751 415 
Q 353 922 353 1747 
Q 353 2572 751 3078 
Q 1150 3584 1784 3584 
Q 2172 3584 2448 3432 
Q 2725 3281 2906 2969 
z
M 947 1747 
Q 947 1113 1208 752 
Q 1469 391 1925 391 
Q 2381 391 2643 752 
Q 2906 1113 2906 1747 
Q 2906 2381 2643 2742 
Q 2381 3103 1925 3103 
Q 1469 3103 1208 2742 
Q 947 2381 947 1747 
z
" transform="scale(0.015625)"/>
       <path id="DejaVuSans-41" d="M 2188 4044 
L 1331 1722 
L 3047 1722 
L 2188 4044 
z
M 1831 4666 
L 2547 4666 
L 4325 0 
L 3669 0 
L 3244 1197 
L 1141 1197 
L 716 0 
L 50 0 
L 1831 4666 
z
" transform="scale(0.015625)"/>
       <path id="DejaVuSans-75" d="M 544 1381 
L 544 3500 
L 1119 3500 
L 1119 1403 
Q 1119 906 1312 657 
Q 1506 409 1894 409 
Q 2359 409 2629 706 
Q 2900 1003 2900 1516 
L 2900 3500 
L 3475 3500 
L 3475 0 
L 2900 0 
L 2900 538 
Q 2691 219 2414 64 
Q 2138 -91 1772 -91 
Q 1169 -91 856 284 
Q 544 659 544 1381 
z
M 1991 3584 
L 1991 3584 
z
" transform="scale(0.015625)"/>
       <path id="DejaVuSans-63" d="M 3122 3366 
L 3122 2828 
Q 2878 2963 2633 3030 
Q 2388 3097 2138 3097 
Q 1578 3097 1268 2742 
Q 959 2388 959 1747 
Q 959 1106 1268 751 
Q 1578 397 2138 397 
Q 2388 397 2633 464 
Q 2878 531 3122 666 
L 3122 134 
Q 2881 22 2623 -34 
Q 2366 -91 2075 -91 
Q 1284 -91 818 406 
Q 353 903 353 1747 
Q 353 2603 823 3093 
Q 1294 3584 2113 3584 
Q 2378 3584 2631 3529 
Q 2884 3475 3122 3366 
z
" transform="scale(0.015625)"/>
       <path id="DejaVuSans-54" d="M -19 4666 
L 3928 4666 
L 3928 4134 
L 2272 4134 
L 2272 0 
L 1638 0 
L 1638 4134 
L -19 4134 
L -19 4666 
z
" transform="scale(0.015625)"/>
      </defs>
      <use xlink:href="#DejaVuSans-43"/>
      <use xlink:href="#DejaVuSans-65" x="69.824219"/>
      <use xlink:href="#DejaVuSans-6e" x="131.347656"/>
      <use xlink:href="#DejaVuSans-74" x="194.726562"/>
      <use xlink:href="#DejaVuSans-65" x="233.935547"/>
      <use xlink:href="#DejaVuSans-72" x="295.458984"/>
      <use xlink:href="#DejaVuSans-61" x="336.572266"/>
      <use xlink:href="#DejaVuSans-6c" x="397.851562"/>
      <use xlink:href="#DejaVuSans-69" x="425.634766"/>
      <use xlink:href="#DejaVuSans-7a" x="453.417969"/>
      <use xlink:href="#DejaVuSans-65" x="505.908203"/>
      <use xlink:href="#DejaVuSans-64" x="567.431641"/>
      <use xlink:href="#DejaVuSans-20" x="630.908203"/>
      <use xlink:href="#DejaVuSans-41" x="662.695312"/>
      <use xlink:href="#DejaVuSans-75" x="731.103516"/>
      <use xlink:href="#DejaVuSans-74" x="794.482422"/>
      <use xlink:href="#DejaVuSans-6f" x="833.691406"/>
      <use xlink:href="#DejaVuSans-65" x="894.873047"/>
      <use xlink:href="#DejaVuSans-6e" x="956.396484"/>
      <use xlink:href="#DejaVuSans-63" x="1019.775391"/>
      <use xlink:href="#DejaVuSans-6f" x="1074.755859"/>
      <use xlink:href="#DejaVuSans-64" x="1135.9375"/>
      <use xlink:href="#DejaVuSans-65" x="1199.414062"/>
      <use xlink:href="#DejaVuSans-72" x="1260.9375"/>
      <use xlink:href="#DejaVuSans-20" x="1302.050781"/>
      <use xlink:href="#DejaVuSans-54" x="1333.837891"/>
      <use xlink:href="#DejaVuSans-65" x="1377.921875"/>
      <use xlink:href="#DejaVuSans-73" x="1439.445312"/>
      <use xlink:href="#DejaVuSans-74" x="1491.544922"/>
      <use xlink:href="#DejaVuSans-20" x="1530.753906"/>
      <use xlink:href="#DejaVuSans-4c" x="1562.541016"/>
      <use xlink:href="#DejaVuSans-6f" x="1616.503906"/>
      <use xlink:href="#DejaVuSans-73" x="1677.685547"/>
      <use xlink:href="#DejaVuSans-73" x="1729.785156"/>
     </g>
    </g>
    <g id="line2d_15">
     <path d="M 428.835 123.445 
L 460.835 123.445 
L 492.835 123.445 
" style="fill: none; stroke: #ff7f0e; stroke-width: 5; stroke-linecap: square"/>
    </g>
    <g id="text_8">
     <!-- Federated Autoencoder Test Loss -->
     <g transform="translate(518.435 134.645) scale(0.32 -0.32)">
      <defs>
       <path id="DejaVuSans-46" d="M 628 4666 
L 3309 4666 
L 3309 4134 
L 1259 4134 
L 1259 2759 
L 3109 2759 
L 3109 2228 
L 1259 2228 
L 1259 0 
L 628 0 
L 628 4666 
z
" transform="scale(0.015625)"/>
      </defs>
      <use xlink:href="#DejaVuSans-46"/>
      <use xlink:href="#DejaVuSans-65" x="52.019531"/>
      <use xlink:href="#DejaVuSans-64" x="113.542969"/>
      <use xlink:href="#DejaVuSans-65" x="177.019531"/>
      <use xlink:href="#DejaVuSans-72" x="238.542969"/>
      <use xlink:href="#DejaVuSans-61" x="279.65625"/>
      <use xlink:href="#DejaVuSans-74" x="340.935547"/>
      <use xlink:href="#DejaVuSans-65" x="380.144531"/>
      <use xlink:href="#DejaVuSans-64" x="441.667969"/>
      <use xlink:href="#DejaVuSans-20" x="505.144531"/>
      <use xlink:href="#DejaVuSans-41" x="536.931641"/>
      <use xlink:href="#DejaVuSans-75" x="605.339844"/>
      <use xlink:href="#DejaVuSans-74" x="668.71875"/>
      <use xlink:href="#DejaVuSans-6f" x="707.927734"/>
      <use xlink:href="#DejaVuSans-65" x="769.109375"/>
      <use xlink:href="#DejaVuSans-6e" x="830.632812"/>
      <use xlink:href="#DejaVuSans-63" x="894.011719"/>
      <use xlink:href="#DejaVuSans-6f" x="948.992188"/>
      <use xlink:href="#DejaVuSans-64" x="1010.173828"/>
      <use xlink:href="#DejaVuSans-65" x="1073.650391"/>
      <use xlink:href="#DejaVuSans-72" x="1135.173828"/>
      <use xlink:href="#DejaVuSans-20" x="1176.287109"/>
      <use xlink:href="#DejaVuSans-54" x="1208.074219"/>
      <use xlink:href="#DejaVuSans-65" x="1252.158203"/>
      <use xlink:href="#DejaVuSans-73" x="1313.681641"/>
      <use xlink:href="#DejaVuSans-74" x="1365.78125"/>
      <use xlink:href="#DejaVuSans-20" x="1404.990234"/>
      <use xlink:href="#DejaVuSans-4c" x="1436.777344"/>
      <use xlink:href="#DejaVuSans-6f" x="1490.740234"/>
      <use xlink:href="#DejaVuSans-73" x="1551.921875"/>
      <use xlink:href="#DejaVuSans-73" x="1604.021484"/>
     </g>
    </g>
   </g>
  </g>
  <g id="axes_2">
   <g id="patch_7">
    <path d="M 147.8 756.52 
L 1117.44 756.52 
L 1117.44 415.389337 
L 147.8 415.389337 
L 147.8 756.52 
z
" style="fill: none"/>
   </g>
   <g id="matplotlib.axis_3">
    <g id="xtick_7">
     <g id="line2d_16">
      <g>
       <use xlink:href="#m5ac136562d" x="173.884935" y="756.52" style="stroke: #000000; stroke-width: 0.8"/>
      </g>
     </g>
     <g id="text_9">
      <!-- 0 -->
      <g transform="translate(163.704935 787.835) scale(0.32 -0.32)">
       <use xlink:href="#DejaVuSans-30"/>
      </g>
     </g>
    </g>
    <g id="xtick_8">
     <g id="line2d_17">
      <g>
       <use xlink:href="#m5ac136562d" x="353.781039" y="756.52" style="stroke: #000000; stroke-width: 0.8"/>
      </g>
     </g>
     <g id="text_10">
      <!-- 10 -->
      <g transform="translate(333.421039 787.835) scale(0.32 -0.32)">
       <use xlink:href="#DejaVuSans-31"/>
       <use xlink:href="#DejaVuSans-30" x="63.623047"/>
      </g>
     </g>
    </g>
    <g id="xtick_9">
     <g id="line2d_18">
      <g>
       <use xlink:href="#m5ac136562d" x="533.677143" y="756.52" style="stroke: #000000; stroke-width: 0.8"/>
      </g>
     </g>
     <g id="text_11">
      <!-- 20 -->
      <g transform="translate(513.317143 787.835) scale(0.32 -0.32)">
       <use xlink:href="#DejaVuSans-32"/>
       <use xlink:href="#DejaVuSans-30" x="63.623047"/>
      </g>
     </g>
    </g>
    <g id="xtick_10">
     <g id="line2d_19">
      <g>
       <use xlink:href="#m5ac136562d" x="713.573247" y="756.52" style="stroke: #000000; stroke-width: 0.8"/>
      </g>
     </g>
     <g id="text_12">
      <!-- 30 -->
      <g transform="translate(693.213247 787.835) scale(0.32 -0.32)">
       <defs>
        <path id="DejaVuSans-33" d="M 2597 2516 
Q 3050 2419 3304 2112 
Q 3559 1806 3559 1356 
Q 3559 666 3084 287 
Q 2609 -91 1734 -91 
Q 1441 -91 1130 -33 
Q 819 25 488 141 
L 488 750 
Q 750 597 1062 519 
Q 1375 441 1716 441 
Q 2309 441 2620 675 
Q 2931 909 2931 1356 
Q 2931 1769 2642 2001 
Q 2353 2234 1838 2234 
L 1294 2234 
L 1294 2753 
L 1863 2753 
Q 2328 2753 2575 2939 
Q 2822 3125 2822 3475 
Q 2822 3834 2567 4026 
Q 2313 4219 1838 4219 
Q 1578 4219 1281 4162 
Q 984 4106 628 3988 
L 628 4550 
Q 988 4650 1302 4700 
Q 1616 4750 1894 4750 
Q 2613 4750 3031 4423 
Q 3450 4097 3450 3541 
Q 3450 3153 3228 2886 
Q 3006 2619 2597 2516 
z
" transform="scale(0.015625)"/>
       </defs>
       <use xlink:href="#DejaVuSans-33"/>
       <use xlink:href="#DejaVuSans-30" x="63.623047"/>
      </g>
     </g>
    </g>
    <g id="xtick_11">
     <g id="line2d_20">
      <g>
       <use xlink:href="#m5ac136562d" x="893.469351" y="756.52" style="stroke: #000000; stroke-width: 0.8"/>
      </g>
     </g>
     <g id="text_13">
      <!-- 40 -->
      <g transform="translate(873.109351 787.835) scale(0.32 -0.32)">
       <defs>
        <path id="DejaVuSans-34" d="M 2419 4116 
L 825 1625 
L 2419 1625 
L 2419 4116 
z
M 2253 4666 
L 3047 4666 
L 3047 1625 
L 3713 1625 
L 3713 1100 
L 3047 1100 
L 3047 0 
L 2419 0 
L 2419 1100 
L 313 1100 
L 313 1709 
L 2253 4666 
z
" transform="scale(0.015625)"/>
       </defs>
       <use xlink:href="#DejaVuSans-34"/>
       <use xlink:href="#DejaVuSans-30" x="63.623047"/>
      </g>
     </g>
    </g>
    <g id="xtick_12">
     <g id="line2d_21">
      <g>
       <use xlink:href="#m5ac136562d" x="1073.365455" y="756.52" style="stroke: #000000; stroke-width: 0.8"/>
      </g>
     </g>
     <g id="text_14">
      <!-- 50 -->
      <g transform="translate(1053.005455 787.835) scale(0.32 -0.32)">
       <use xlink:href="#DejaVuSans-35"/>
       <use xlink:href="#DejaVuSans-30" x="63.623047"/>
      </g>
     </g>
    </g>
    <g id="text_15">
     <!-- Epoch -->
     <g transform="translate(583.625 822.805) scale(0.32 -0.32)">
      <defs>
       <path id="DejaVuSans-70" d="M 1159 525 
L 1159 -1331 
L 581 -1331 
L 581 3500 
L 1159 3500 
L 1159 2969 
Q 1341 3281 1617 3432 
Q 1894 3584 2278 3584 
Q 2916 3584 3314 3078 
Q 3713 2572 3713 1747 
Q 3713 922 3314 415 
Q 2916 -91 2278 -91 
Q 1894 -91 1617 61 
Q 1341 213 1159 525 
z
M 3116 1747 
Q 3116 2381 2855 2742 
Q 2594 3103 2138 3103 
Q 1681 3103 1420 2742 
Q 1159 2381 1159 1747 
Q 1159 1113 1420 752 
Q 1681 391 2138 391 
Q 2594 391 2855 752 
Q 3116 1113 3116 1747 
z
" transform="scale(0.015625)"/>
       <path id="DejaVuSans-68" d="M 3513 2113 
L 3513 0 
L 2938 0 
L 2938 2094 
Q 2938 2591 2744 2837 
Q 2550 3084 2163 3084 
Q 1697 3084 1428 2787 
Q 1159 2491 1159 1978 
L 1159 0 
L 581 0 
L 581 4863 
L 1159 4863 
L 1159 2956 
Q 1366 3272 1645 3428 
Q 1925 3584 2291 3584 
Q 2894 3584 3203 3211 
Q 3513 2838 3513 2113 
z
" transform="scale(0.015625)"/>
      </defs>
      <use xlink:href="#DejaVuSans-45"/>
      <use xlink:href="#DejaVuSans-70" x="63.183594"/>
      <use xlink:href="#DejaVuSans-6f" x="126.660156"/>
      <use xlink:href="#DejaVuSans-63" x="187.841797"/>
      <use xlink:href="#DejaVuSans-68" x="242.822266"/>
     </g>
    </g>
   </g>
   <g id="matplotlib.axis_4">
    <g id="ytick_6">
     <g id="line2d_22">
      <g>
       <use xlink:href="#m357cb40aff" x="147.8" y="740.49592" style="stroke: #000000; stroke-width: 0.8"/>
      </g>
     </g>
     <g id="text_16">
      <!-- 0.025 -->
      <g transform="translate(49.19 752.65342) scale(0.32 -0.32)">
       <use xlink:href="#DejaVuSans-30"/>
       <use xlink:href="#DejaVuSans-2e" x="63.623047"/>
       <use xlink:href="#DejaVuSans-30" x="95.410156"/>
       <use xlink:href="#DejaVuSans-32" x="159.033203"/>
       <use xlink:href="#DejaVuSans-35" x="222.65625"/>
      </g>
     </g>
    </g>
    <g id="ytick_7">
     <g id="line2d_23">
      <g>
       <use xlink:href="#m357cb40aff" x="147.8" y="671.330426" style="stroke: #000000; stroke-width: 0.8"/>
      </g>
     </g>
     <g id="text_17">
      <!-- 0.050 -->
      <g transform="translate(49.19 683.487926) scale(0.32 -0.32)">
       <use xlink:href="#DejaVuSans-30"/>
       <use xlink:href="#DejaVuSans-2e" x="63.623047"/>
       <use xlink:href="#DejaVuSans-30" x="95.410156"/>
       <use xlink:href="#DejaVuSans-35" x="159.033203"/>
       <use xlink:href="#DejaVuSans-30" x="222.65625"/>
      </g>
     </g>
    </g>
    <g id="ytick_8">
     <g id="line2d_24">
      <g>
       <use xlink:href="#m357cb40aff" x="147.8" y="602.164932" style="stroke: #000000; stroke-width: 0.8"/>
      </g>
     </g>
     <g id="text_18">
      <!-- 0.075 -->
      <g transform="translate(49.19 614.322432) scale(0.32 -0.32)">
       <defs>
        <path id="DejaVuSans-37" d="M 525 4666 
L 3525 4666 
L 3525 4397 
L 1831 0 
L 1172 0 
L 2766 4134 
L 525 4134 
L 525 4666 
z
" transform="scale(0.015625)"/>
       </defs>
       <use xlink:href="#DejaVuSans-30"/>
       <use xlink:href="#DejaVuSans-2e" x="63.623047"/>
       <use xlink:href="#DejaVuSans-30" x="95.410156"/>
       <use xlink:href="#DejaVuSans-37" x="159.033203"/>
       <use xlink:href="#DejaVuSans-35" x="222.65625"/>
      </g>
     </g>
    </g>
    <g id="ytick_9">
     <g id="line2d_25">
      <g>
       <use xlink:href="#m357cb40aff" x="147.8" y="532.999439" style="stroke: #000000; stroke-width: 0.8"/>
      </g>
     </g>
     <g id="text_19">
      <!-- 0.100 -->
      <g transform="translate(49.19 545.156939) scale(0.32 -0.32)">
       <use xlink:href="#DejaVuSans-30"/>
       <use xlink:href="#DejaVuSans-2e" x="63.623047"/>
       <use xlink:href="#DejaVuSans-31" x="95.410156"/>
       <use xlink:href="#DejaVuSans-30" x="159.033203"/>
       <use xlink:href="#DejaVuSans-30" x="222.65625"/>
      </g>
     </g>
    </g>
    <g id="ytick_10">
     <g id="line2d_26">
      <g>
       <use xlink:href="#m357cb40aff" x="147.8" y="463.833945" style="stroke: #000000; stroke-width: 0.8"/>
      </g>
     </g>
     <g id="text_20">
      <!-- 0.125 -->
      <g transform="translate(49.19 475.991445) scale(0.32 -0.32)">
       <use xlink:href="#DejaVuSans-30"/>
       <use xlink:href="#DejaVuSans-2e" x="63.623047"/>
       <use xlink:href="#DejaVuSans-31" x="95.410156"/>
       <use xlink:href="#DejaVuSans-32" x="159.033203"/>
       <use xlink:href="#DejaVuSans-35" x="222.65625"/>
      </g>
     </g>
    </g>
    <g id="text_21">
     <!-- Crossentropy Loss -->
     <g transform="translate(38.535 731.877169) rotate(-90) scale(0.32 -0.32)">
      <defs>
       <path id="DejaVuSans-79" d="M 2059 -325 
Q 1816 -950 1584 -1140 
Q 1353 -1331 966 -1331 
L 506 -1331 
L 506 -850 
L 844 -850 
Q 1081 -850 1212 -737 
Q 1344 -625 1503 -206 
L 1606 56 
L 191 3500 
L 800 3500 
L 1894 763 
L 2988 3500 
L 3597 3500 
L 2059 -325 
z
" transform="scale(0.015625)"/>
      </defs>
      <use xlink:href="#DejaVuSans-43"/>
      <use xlink:href="#DejaVuSans-72" x="69.824219"/>
      <use xlink:href="#DejaVuSans-6f" x="108.6875"/>
      <use xlink:href="#DejaVuSans-73" x="169.869141"/>
      <use xlink:href="#DejaVuSans-73" x="221.96875"/>
      <use xlink:href="#DejaVuSans-65" x="274.068359"/>
      <use xlink:href="#DejaVuSans-6e" x="335.591797"/>
      <use xlink:href="#DejaVuSans-74" x="398.970703"/>
      <use xlink:href="#DejaVuSans-72" x="438.179688"/>
      <use xlink:href="#DejaVuSans-6f" x="477.042969"/>
      <use xlink:href="#DejaVuSans-70" x="538.224609"/>
      <use xlink:href="#DejaVuSans-79" x="601.701172"/>
      <use xlink:href="#DejaVuSans-20" x="660.880859"/>
      <use xlink:href="#DejaVuSans-4c" x="692.667969"/>
      <use xlink:href="#DejaVuSans-6f" x="746.630859"/>
      <use xlink:href="#DejaVuSans-73" x="807.8125"/>
      <use xlink:href="#DejaVuSans-73" x="859.912109"/>
     </g>
    </g>
   </g>
   <g id="line2d_27">
    <path d="M 191.874545 430.895276 
L 209.864156 664.02205 
L 227.853766 694.565332 
L 245.843377 706.522487 
L 263.832987 711.266726 
L 281.822597 716.998583 
L 299.812208 720.687441 
L 317.801818 722.754587 
L 335.791429 724.209241 
L 353.781039 726.806706 
L 371.770649 730.252193 
L 389.76026 730.152483 
L 407.74987 733.253213 
L 425.739481 735.437868 
L 443.729091 733.638886 
L 461.718701 734.508122 
L 479.708312 736.624193 
L 497.697922 736.511704 
L 515.687532 740.757018 
L 533.677143 737.461176 
L 551.666753 734.891358 
L 569.656364 738.273341 
L 587.645974 741.014061 
L 605.635584 737.09943 
L 623.625195 734.38783 
L 641.614805 737.640318 
L 659.604416 736.60036 
L 677.594026 736.778924 
L 695.583636 736.961704 
L 713.573247 734.647502 
L 731.562857 731.902231 
L 749.552468 735.207642 
L 767.542078 733.084053 
L 785.531688 731.794318 
L 803.521299 732.132122 
L 821.510909 732.858841 
L 839.500519 731.18485 
L 857.49013 732.01619 
L 875.47974 732.356123 
L 893.469351 729.092468 
L 911.458961 727.300623 
L 929.448571 729.725264 
L 947.438182 731.352428 
L 965.427792 730.578882 
L 983.417403 725.870251 
L 1001.407013 723.750289 
L 1019.396623 725.970471 
L 1037.386234 722.337196 
L 1055.375844 722.829566 
L 1073.365455 724.892637 
" clip-path="url(#p959114d297)" style="fill: none; stroke: #1f77b4; stroke-width: 5; stroke-linecap: square"/>
   </g>
   <g id="line2d_28">
    <path d="M 191.874545 569.199273 
L 209.864156 649.3921 
L 227.853766 665.64336 
L 245.843377 679.385625 
L 263.832987 688.290408 
L 281.822597 693.788534 
L 299.812208 699.58461 
L 317.801818 703.516721 
L 335.791429 706.276389 
L 353.781039 708.657491 
L 371.770649 714.525619 
L 389.76026 715.667843 
L 407.74987 720.707023 
L 425.739481 716.30704 
L 443.729091 722.037597 
L 461.718701 725.174915 
L 479.708312 726.130412 
L 497.697922 725.870091 
L 515.687532 724.880212 
L 533.677143 726.824037 
L 551.666753 724.090887 
L 569.656364 729.969651 
L 587.645974 728.062209 
L 605.635584 728.244458 
L 623.625195 729.916372 
L 641.614805 729.933032 
L 659.604416 727.107547 
L 677.594026 730.888364 
L 695.583636 729.629924 
L 713.573247 732.454632 
L 731.562857 732.575723 
L 749.552468 732.337612 
L 767.542078 730.131184 
L 785.531688 731.133782 
L 803.521299 730.422074 
L 821.510909 736.586657 
L 839.500519 734.054983 
L 857.49013 734.990655 
L 875.47974 736.340606 
L 893.469351 731.963024 
L 911.458961 732.00965 
L 929.448571 730.918882 
L 947.438182 729.377581 
L 965.427792 736.174966 
L 983.417403 736.531142 
L 1001.407013 733.307821 
L 1019.396623 727.898382 
L 1037.386234 726.984915 
L 1055.375844 735.740754 
L 1073.365455 730.890575 
" clip-path="url(#p959114d297)" style="fill: none; stroke: #ff7f0e; stroke-width: 5; stroke-linecap: square"/>
   </g>
   <g id="patch_8">
    <path d="M 147.8 756.52 
L 147.8 415.389337 
" style="fill: none; stroke: #000000; stroke-width: 0.8; stroke-linejoin: miter; stroke-linecap: square"/>
   </g>
   <g id="patch_9">
    <path d="M 1117.44 756.52 
L 1117.44 415.389337 
" style="fill: none; stroke: #000000; stroke-width: 0.8; stroke-linejoin: miter; stroke-linecap: square"/>
   </g>
   <g id="patch_10">
    <path d="M 147.8 756.52 
L 1117.44 756.52 
" style="fill: none; stroke: #000000; stroke-width: 0.8; stroke-linejoin: miter; stroke-linecap: square"/>
   </g>
   <g id="patch_11">
    <path d="M 147.8 415.389337 
L 1117.44 415.389337 
" style="fill: none; stroke: #000000; stroke-width: 0.8; stroke-linejoin: miter; stroke-linecap: square"/>
   </g>
   <g id="legend_2">
    <g id="line2d_29">
     <path d="M 421.705 457.304337 
L 453.705 457.304337 
L 485.705 457.304337 
" style="fill: none; stroke: #1f77b4; stroke-width: 5; stroke-linecap: square"/>
    </g>
    <g id="text_22">
     <!-- Centeralized Classification Test Loss -->
     <g transform="translate(511.305 468.504337) scale(0.32 -0.32)">
      <defs>
       <path id="DejaVuSans-66" d="M 2375 4863 
L 2375 4384 
L 1825 4384 
Q 1516 4384 1395 4259 
Q 1275 4134 1275 3809 
L 1275 3500 
L 2222 3500 
L 2222 3053 
L 1275 3053 
L 1275 0 
L 697 0 
L 697 3053 
L 147 3053 
L 147 3500 
L 697 3500 
L 697 3744 
Q 697 4328 969 4595 
Q 1241 4863 1831 4863 
L 2375 4863 
z
" transform="scale(0.015625)"/>
      </defs>
      <use xlink:href="#DejaVuSans-43"/>
      <use xlink:href="#DejaVuSans-65" x="69.824219"/>
      <use xlink:href="#DejaVuSans-6e" x="131.347656"/>
      <use xlink:href="#DejaVuSans-74" x="194.726562"/>
      <use xlink:href="#DejaVuSans-65" x="233.935547"/>
      <use xlink:href="#DejaVuSans-72" x="295.458984"/>
      <use xlink:href="#DejaVuSans-61" x="336.572266"/>
      <use xlink:href="#DejaVuSans-6c" x="397.851562"/>
      <use xlink:href="#DejaVuSans-69" x="425.634766"/>
      <use xlink:href="#DejaVuSans-7a" x="453.417969"/>
      <use xlink:href="#DejaVuSans-65" x="505.908203"/>
      <use xlink:href="#DejaVuSans-64" x="567.431641"/>
      <use xlink:href="#DejaVuSans-20" x="630.908203"/>
      <use xlink:href="#DejaVuSans-43" x="662.695312"/>
      <use xlink:href="#DejaVuSans-6c" x="732.519531"/>
      <use xlink:href="#DejaVuSans-61" x="760.302734"/>
      <use xlink:href="#DejaVuSans-73" x="821.582031"/>
      <use xlink:href="#DejaVuSans-73" x="873.681641"/>
      <use xlink:href="#DejaVuSans-69" x="925.78125"/>
      <use xlink:href="#DejaVuSans-66" x="953.564453"/>
      <use xlink:href="#DejaVuSans-69" x="988.769531"/>
      <use xlink:href="#DejaVuSans-63" x="1016.552734"/>
      <use xlink:href="#DejaVuSans-61" x="1071.533203"/>
      <use xlink:href="#DejaVuSans-74" x="1132.8125"/>
      <use xlink:href="#DejaVuSans-69" x="1172.021484"/>
      <use xlink:href="#DejaVuSans-6f" x="1199.804688"/>
      <use xlink:href="#DejaVuSans-6e" x="1260.986328"/>
      <use xlink:href="#DejaVuSans-20" x="1324.365234"/>
      <use xlink:href="#DejaVuSans-54" x="1356.152344"/>
      <use xlink:href="#DejaVuSans-65" x="1400.236328"/>
      <use xlink:href="#DejaVuSans-73" x="1461.759766"/>
      <use xlink:href="#DejaVuSans-74" x="1513.859375"/>
      <use xlink:href="#DejaVuSans-20" x="1553.068359"/>
      <use xlink:href="#DejaVuSans-4c" x="1584.855469"/>
      <use xlink:href="#DejaVuSans-6f" x="1638.818359"/>
      <use xlink:href="#DejaVuSans-73" x="1700"/>
      <use xlink:href="#DejaVuSans-73" x="1752.099609"/>
     </g>
    </g>
    <g id="line2d_30">
     <path d="M 421.705 504.274337 
L 453.705 504.274337 
L 485.705 504.274337 
" style="fill: none; stroke: #ff7f0e; stroke-width: 5; stroke-linecap: square"/>
    </g>
    <g id="text_23">
     <!-- Federated Classification Test Loss -->
     <g transform="translate(511.305 515.474337) scale(0.32 -0.32)">
      <use xlink:href="#DejaVuSans-46"/>
      <use xlink:href="#DejaVuSans-65" x="52.019531"/>
      <use xlink:href="#DejaVuSans-64" x="113.542969"/>
      <use xlink:href="#DejaVuSans-65" x="177.019531"/>
      <use xlink:href="#DejaVuSans-72" x="238.542969"/>
      <use xlink:href="#DejaVuSans-61" x="279.65625"/>
      <use xlink:href="#DejaVuSans-74" x="340.935547"/>
      <use xlink:href="#DejaVuSans-65" x="380.144531"/>
      <use xlink:href="#DejaVuSans-64" x="441.667969"/>
      <use xlink:href="#DejaVuSans-20" x="505.144531"/>
      <use xlink:href="#DejaVuSans-43" x="536.931641"/>
      <use xlink:href="#DejaVuSans-6c" x="606.755859"/>
      <use xlink:href="#DejaVuSans-61" x="634.539062"/>
      <use xlink:href="#DejaVuSans-73" x="695.818359"/>
      <use xlink:href="#DejaVuSans-73" x="747.917969"/>
      <use xlink:href="#DejaVuSans-69" x="800.017578"/>
      <use xlink:href="#DejaVuSans-66" x="827.800781"/>
      <use xlink:href="#DejaVuSans-69" x="863.005859"/>
      <use xlink:href="#DejaVuSans-63" x="890.789062"/>
      <use xlink:href="#DejaVuSans-61" x="945.769531"/>
      <use xlink:href="#DejaVuSans-74" x="1007.048828"/>
      <use xlink:href="#DejaVuSans-69" x="1046.257812"/>
      <use xlink:href="#DejaVuSans-6f" x="1074.041016"/>
      <use xlink:href="#DejaVuSans-6e" x="1135.222656"/>
      <use xlink:href="#DejaVuSans-20" x="1198.601562"/>
      <use xlink:href="#DejaVuSans-54" x="1230.388672"/>
      <use xlink:href="#DejaVuSans-65" x="1274.472656"/>
      <use xlink:href="#DejaVuSans-73" x="1335.996094"/>
      <use xlink:href="#DejaVuSans-74" x="1388.095703"/>
      <use xlink:href="#DejaVuSans-20" x="1427.304688"/>
      <use xlink:href="#DejaVuSans-4c" x="1459.091797"/>
      <use xlink:href="#DejaVuSans-6f" x="1513.054688"/>
      <use xlink:href="#DejaVuSans-73" x="1574.236328"/>
      <use xlink:href="#DejaVuSans-73" x="1626.335938"/>
     </g>
    </g>
   </g>
  </g>
 </g>
 <defs>
  <clipPath id="pc9c5dfef1a">
   <rect x="147.8" y="34.56" width="969.64" height="341.130663"/>
  </clipPath>
  <clipPath id="p959114d297">
   <rect x="147.8" y="415.389337" width="969.64" height="341.130663"/>
  </clipPath>
 </defs>
</svg>
